<svg height="512pt" viewBox="-4 0 512 512.00052" width="512pt" xmlns="http://www.w3.org/2000/svg"><path d="m251.660156 121.492188c-19.25-.023438-38.394531 2.875-56.777344 8.589843 12.410157 21.074219 22.824219 43.261719 31.109376 66.273438 0 0-24.003907-29.289063-52.640626-58.054688-66.570312 29.871094-110.292968 95.070313-112.65625 167.996094-2.367187 72.921875 37.039063 140.820313 101.53125 174.941406 64.496094 34.121094 142.796876 28.5 201.753907-14.484375-36.164063-7.566406-63.574219-37.203125-68.296875-73.847656s14.273437-72.261719 47.339844-88.753906c33.0625-16.488282 72.941406-10.234375 99.371093 15.585937.085938-2.4375.183594-4.875.183594-7.332031 0-105.4375-85.476563-190.914062-190.917969-190.914062zm0 0" fill="#78c5d6"/><g fill="#336a93"><path d="m251.660156 512c-94.082031-.011719-175.386718-65.726562-195.125-157.71875-19.738281-91.988281 27.445313-185.273438 113.242188-223.886719 2.824218-1.273437 6.117187-.945312 8.636718.863281 2.515626 1.808594 3.878907 4.824219 3.570313 7.910157-.308594 3.085937-2.238281 5.769531-5.066406 7.046875-63.550781 28.503906-105.292969 90.742187-107.558594 160.355468-2.261719 69.613282 35.351563 134.429688 96.917969 167.003907 61.566406 32.570312 136.3125 27.203125 192.59375-13.832031 3.871094-2.65625 9.15625-1.75 11.921875 2.046874 2.765625 3.796876 2.007812 9.105469-1.710938 11.976563-34.0625 24.933594-75.203125 38.332031-117.421875 38.234375zm0 0"/><path d="m251.660156 512c-4.789062 0-8.675781-3.886719-8.675781-8.679688v-381.828124c0-4.792969 3.886719-8.679688 8.675781-8.679688 4.792969 0 8.679688 3.886719 8.679688 8.679688v381.828124c0 4.792969-3.886719 8.679688-8.679688 8.679688zm0 0"/><path d="m329.761719 321.085938h-269.015625c-4.792969 0-8.675782-3.886719-8.675782-8.679688s3.882813-8.675781 8.675782-8.675781h269.015625c4.792969 0 8.679687 3.882812 8.679687 8.675781s-3.886718 8.679688-8.679687 8.679688zm0 0"/><path d="m251.660156 512c-58.390625 0-104.132812-87.648438-104.132812-199.59375 0-62.03125 14.34375-119.3125 39.371094-157.15625 1.636718-2.742188 4.648437-4.359375 7.835937-4.21875 3.1875.144531 6.042969 2.027344 7.429687 4.902344 1.386719 2.871094 1.082032 6.277344-.789062 8.859375-22.851562 34.59375-36.492188 89.757812-36.492188 147.613281 0 98.78125 39.734376 182.238281 86.777344 182.238281 22.566406 0 45.023438-19.960937 61.484375-54.671875 2.078125-4.285156 7.222657-6.09375 11.527344-4.054687 4.304687 2.042969 6.15625 7.171875 4.15625 11.492187-19.734375 41.636719-47.140625 64.589844-77.167969 64.589844zm0 0"/><path d="m116.285156 455.699219c-3.335937-.003907-6.375-1.917969-7.816406-4.925781-1.445312-3.003907-1.035156-6.574219 1.046875-9.179688 29.445313-36.863281 83.917969-59.761719 142.144531-59.761719 15.539063-.019531 31.03125 1.59375 46.230469 4.816407 3.03125.644531 5.488281 2.863281 6.441406 5.8125.957031 2.949218.265625 6.183593-1.8125 8.488281-2.078125 2.300781-5.226562 3.320312-8.257812 2.671875-14.003907-2.96875-28.285157-4.457032-42.601563-4.433594-53.082031 0-102.398437 20.402344-128.605468 53.246094-1.644532 2.058594-4.132813 3.261718-6.769532 3.265625zm0 0"/><path d="m442.394531 328.417969h-.339843c-4.785157-.183594-8.519532-4.210938-8.335938-9 .085938-2.324219.179688-4.652344.179688-7.003907-.039063-57.933593-27.601563-112.402343-74.257813-146.746093s-106.851563-44.476563-162.179687-27.296875c-4.578126 1.421875-9.441407-1.132813-10.867188-5.710938-1.421875-4.578125 1.132812-9.441406 5.710938-10.863281 60.59375-18.8125 126.523437-7.714844 177.621093 29.898437 51.097657 37.609376 81.285157 97.261719 81.328125 160.710938 0 2.605469-.09375 5.113281-.191406 7.664062-.175781 4.660157-4.003906 8.347657-8.667969 8.347657zm0 0"/></g><path d="m152.351562 73.632812c-49.082031-49.089843-122.722656-73.632812-122.722656-73.632812s67.496094 55.226562 98.179688 98.183594c42.957031 30.675781 98.183594 98.171875 98.183594 98.171875s-24.550782-73.632813-73.640626-122.722657zm0 0" fill="#c9ced1"/><path d="m127.808594 98.183594c-3.210938-4.496094-6.835938-9.128906-10.734375-13.816406l-111.988281 111.988281c-3.257813 3.257812-5.085938 7.671875-5.085938 12.277343 0 4.601563 1.828125 9.019532 5.085938 12.273438 6.777343 6.777344 17.765624 6.777344 24.542968 0l111.988282-111.945312c-4.6875-3.957032-9.3125-7.566407-13.808594-10.777344zm0 0" fill="#dc6c33"/><path d="m346.972656 310.964844c-4.707031.003906-8.554687-3.746094-8.679687-8.449219-2.453125-95.035156-41.332031-172.347656-86.632813-172.347656-4.789062 0-8.675781-3.882813-8.675781-8.675781 0-4.792969 3.886719-8.679688 8.675781-8.679688 56.476563 0 101.1875 81.355469 104 189.25.121094 4.785156-3.660156 8.765625-8.445312 8.894531zm0 0" fill="#336a93"/><path d="m251.660156 242.984375c-58.226562 0-112.699218-22.902344-142.167968-59.765625-1.9375-2.421875-2.433594-5.695312-1.304688-8.582031 1.132812-2.890625 3.714844-4.957031 6.78125-5.421875s6.148438.742187 8.085938 3.164062c26.207031 32.847656 75.523437 53.25 128.605468 53.25 53.085938 0 102.402344-20.402344 128.601563-53.242187 2.988281-3.746094 8.449219-4.355469 12.195312-1.367188 3.746094 2.992188 4.359375 8.453125 1.367188 12.199219-29.453125 36.863281-83.925781 59.765625-142.164063 59.765625zm0 0" fill="#336a93"/><path d="m468.609375 381.832031c0 47.925781-38.851563 86.777344-86.777344 86.777344s-86.78125-38.851563-86.78125-86.777344c0-47.929687 38.855469-86.78125 86.78125-86.78125s86.777344 38.851563 86.777344 86.78125zm0 0" fill="#a773b4"/><path d="m433.898438 381.832031c0 28.753907-23.3125 52.066407-52.066407 52.066407-28.757812 0-52.070312-23.3125-52.070312-52.066407 0-28.757812 23.3125-52.070312 52.070312-52.070312 28.753907 0 52.066407 23.3125 52.066407 52.070312zm0 0" fill="#bddcf3"/><path d="m498.238281 473.695312-44.03125-44.03125c-6.453125 9.742188-14.800781 18.085938-24.542969 24.539063l44.03125 44.035156c6.8125 6.574219 17.636719 6.480469 24.332032-.214843 6.695312-6.691407 6.789062-17.519532.210937-24.328126zm0 0" fill="#4e435f"/><path d="m208.273438 95.457031c-4.792969 0-8.679688-3.882812-8.679688-8.675781v-17.359375c0-4.789063 3.886719-8.675781 8.679688-8.675781 4.792968 0 8.675781 3.886718 8.675781 8.675781v17.359375c0 4.792969-3.882813 8.675781-8.675781 8.675781zm0 0" fill="#a773b4"/><path d="m242.984375 95.457031c-3.507813 0-6.671875-2.113281-8.015625-5.355469-1.34375-3.242187-.601562-6.976562 1.878906-9.457031l8.679688-8.679687c3.402344-3.289063 8.816406-3.238282 12.164062.105468 3.347656 3.347657 3.394532 8.761719.105469 12.167969l-8.675781 8.675781c-1.628906 1.628907-3.835938 2.542969-6.136719 2.542969zm0 0" fill="#a773b4"/></svg>